<?xml version="1.0" encoding="UTF-8" standalone="no"?>
<svg width="83px" height="50px" viewBox="0 0 83 50" version="1.1" xmlns="http://www.w3.org/2000/svg" xmlns:xlink="http://www.w3.org/1999/xlink">
    <!-- Generator: sketchtool 42 (36781) - http://www.bohemiancoding.com/sketch -->
    <title>B09A3727-968D-4732-BA9C-1B618015E78B</title>
    <desc>Created with sketchtool.</desc>
    <defs></defs>
    <g id="web" stroke="none" stroke-width="1" fill="none" fill-rule="evenodd">
        <g id="добавление-статьи" transform="translate(-418.000000, -694.000000)">
            <g id="камера" transform="translate(418.000000, 694.000000)">
                <rect id="Rectangle-4-Copy" fill="#B3B3B3" x="0" y="0" width="83" height="50" rx="8"></rect>
                <path d="M58.108509,41.956125 L25.848988,41.956125 C23.1748204,41.956125 21,39.79425 21,37.136 L21,17.587875 C21,14.929625 23.1748204,12.76775 25.848988,12.76775 L32.4315449,12.76775 L33.0077246,10.835625 C33.2428743,9.778375 34.2151617,9.002375 35.3587186,9.002375 L48.5996587,9.002375 C49.7108982,9.002375 50.6943772,9.774375 50.9546766,10.84525 L50.970018,10.911125 L51.4952695,12.767625 L58.1092635,12.767625 C60.7834311,12.767625 62.9582515,14.9295 62.9582515,17.58775 L62.9582515,37.13575 C62.957497,39.79425 60.7819222,41.956125 58.108509,41.956125 Z M25.848988,14.3745 C24.0661257,14.3745 22.6163713,15.81575 22.6163713,17.587875 L22.6163713,37.135875 C22.6163713,38.908125 24.0662515,40.34925 25.848988,40.34925 L58.108509,40.34925 C59.8913713,40.34925 61.3411257,38.908 61.3411257,37.135875 L61.3411257,17.587875 C61.3411257,15.815625 59.8912455,14.3745 58.108509,14.3745 L50.270982,14.3745 L49.3860898,11.237375 C49.304479,10.872625 48.9738862,10.608375 48.5989042,10.608375 L35.3578383,10.608375 C34.9771976,10.608375 34.6538982,10.867 34.5706527,11.23825 L33.6364671,14.3745 L25.848988,14.3745 L25.848988,14.3745 Z M41.980006,37.09975 C36.3237126,37.09975 31.7219461,32.52625 31.7219461,26.904375 C31.7219461,21.28175 36.3235868,16.70825 41.980006,16.70825 C47.6347904,16.70825 52.2356766,21.2825 52.2356766,26.904375 C52.2355509,32.5255 47.6346647,37.09975 41.980006,37.09975 Z M41.980006,18.314125 C37.215018,18.314125 33.3383174,22.167 33.3383174,26.903625 C33.3383174,31.64025 37.2151437,35.49225 41.980006,35.49225 C46.7441138,35.49225 50.6193054,31.639375 50.6193054,26.903625 C50.6191796,22.167 46.7432335,18.314125 41.980006,18.314125 Z M57.0651737,17.3565 C56.2408922,17.3565 55.5740479,18.020875 55.5740479,18.83875 C55.5740479,19.657375 56.2407665,20.320875 57.0651737,20.320875 C57.8887006,20.320875 58.5554192,19.65725 58.5554192,18.83875 C58.5546647,18.020875 57.8878204,17.3565 57.0651737,17.3565 Z" id="Shape" fill="#FFFFFF" fill-rule="nonzero"></path>
            </g>
        </g>
    </g>
</svg>