<svg xmlns="http://www.w3.org/2000/svg" xmlns:xlink="http://www.w3.org/1999/xlink" width="253" height="35" viewBox="0 0 253 35">
    <defs>
        <path id="a" d="M0 .122v33.23h27.98V.123z"/>
    </defs>
    <g fill="none" fill-rule="evenodd">
        <path fill="none" d="M-1-19h268v70H-1z"/>
        <path fill="#1D1D24" d="M23.734 25.635c-2.316.462-4.679 1.228-6.896 1.864-2.81.806-6.382 1.808-9.566 1.7a11.021 11.021 0 0 0 6.718 2.27 11.013 11.013 0 0 0 9.744-5.834m1.466-1.136c-6.125.806-14.628 5.043-20.176 3.497a16.095 16.095 0 0 1-.339-.099 11.901 11.901 0 0 0 9.304 4.45c3.167 0 6.174-1.237 8.413-3.46A11.776 11.776 0 0 0 25.2 24.5"/>
        <g transform="translate(0 1.071)">
            <mask id="b" fill="#fff">
                <use xlink:href="#a"/>
            </mask>
            <path fill="#1D1D24" d="M24.71 12.552a12.809 12.809 0 0 0-5.55-4.693l-.36-.158V5.044h-.002c0-1.59.53-1.92.943-2.179.03-.019.054-.034.054-.04V1.369a.048.048 0 0 0-.013-.033.052.052 0 0 0-.033-.013H8.23a.052.052 0 0 0-.033.013.048.048 0 0 0-.013.033v1.458c0 .005.025.02.055.04.413.257.942.588.942 2.178V7.7l-.361.158a12.809 12.809 0 0 0-5.551 4.693 12.56 12.56 0 0 0-2.06 6.914c0 3.504 1.43 6.675 3.743 8.97a12.786 12.786 0 0 0 9.038 3.717c3.53 0 6.725-1.42 9.037-3.716a12.599 12.599 0 0 0 3.744-8.971 12.56 12.56 0 0 0-2.06-6.914zm-4.706-5.626a14.023 14.023 0 0 1 5.717 4.975 13.746 13.746 0 0 1 2.259 7.565c0 3.835-1.566 7.306-4.098 9.82a14 14 0 0 1-9.892 4.067 14 14 0 0 1-9.892-4.067A13.793 13.793 0 0 1 0 19.466c0-2.789.83-5.387 2.259-7.565a14.014 14.014 0 0 1 5.713-4.973V5.044c0-.932-.21-1.064-.375-1.167-.34-.213-.621-.388-.621-1.051V1.368c0-.341.141-.652.368-.878l.002-.002c.228-.225.54-.366.884-.366h11.52c.343 0 .656.14.883.366l.002.002c.227.226.369.537.369.878v1.458c0 .663-.281.838-.622 1.051-.164.103-.375.235-.375 1.167h-.002v1.882z" mask="url(#b)"/>
        </g>
        <path fill="#1D1D24" d="M3.356 22.044a.322.322 0 0 1-.637.085 13.003 13.003 0 0 1 .108-4.319c.28-1.41.801-2.719 1.526-3.884a.322.322 0 0 1 .442-.104c.15.092.197.29.104.439a11.005 11.005 0 0 0-1.44 3.672 12.387 12.387 0 0 0-.103 4.111M40.435 6.213v9.854a573.988 573.988 0 0 1-7.53 12.942l-.02.025a2.702 2.702 0 0 0-.415.783 2.807 2.807 0 0 0-.14.892c0 .743.283 1.412.742 1.893a2.43 2.43 0 0 0 1.764.768h20.783a2.43 2.43 0 0 0 1.763-.768c.46-.481.744-1.15.744-1.893 0-.318-.05-.619-.142-.892a2.702 2.702 0 0 0-.414-.783l-.02-.025a739.28 739.28 0 0 1-7.53-12.952V5.38l.032-.094c.198-.571.622-1.157.89-1.528.065-.088.11.144.11-.003V2.438a.07.07 0 0 0-.02-.051l-.003-.003a.074.074 0 0 0-.051-.02H39.477a.073.073 0 0 0-.052.023.073.073 0 0 0-.022.05v1.318c0 .14.055-.065.131.038v.003c.268.365.668.907.866 1.47l.035.098v.85zM33.661 29.48l5.135-8.56.296.05.46.082c.161.03.312.061.45.09 2.252.484 3.857 1.473 5.318 2.374 2.146 1.324 3.965 2.445 7.147 1.213.119-.045.258-.102.411-.165l.416-.174.355-.152 3.145 5.242.075.101a1.747 1.747 0 0 1 .27.518 1.982 1.982 0 0 1 .102.611c0 .236-.044.472-.13.696a1.82 1.82 0 0 1-.375.592c-.147.155-.32.28-.51.364a1.47 1.47 0 0 1-.607.132H34.836c-.215 0-.42-.047-.608-.132a1.626 1.626 0 0 1-.51-.364 1.798 1.798 0 0 1-.373-.592 1.916 1.916 0 0 1-.105-1.004c.016-.1.043-.201.076-.302a1.784 1.784 0 0 1 .27-.517l.075-.103zm5.58-7.594c-1.443 2.406-3.352 6.097-4.947 8.22a.994.994 0 0 0-.196.604c0 .134.023.264.069.38a.923.923 0 0 0 .193.306l.001.002a.74.74 0 0 0 .23.166.6.6 0 0 0 .245.05h20.783c.088 0 .17-.017.244-.05a.735.735 0 0 0 .23-.166l.002-.002a.933.933 0 0 0 .193-.306 1.049 1.049 0 0 0 .056-.547.961.961 0 0 0-.183-.437c-.96-1.277-2.015-3.333-2.873-4.762l-.5.2c-3.594 1.392-5.585.165-7.934-1.284-1.399-.862-2.934-1.808-5.039-2.26a20.103 20.103 0 0 0-.429-.087l-.145-.027zm2.806-9.536a.32.32 0 0 1 .308-.33.32.32 0 0 1 .334.305c.062 1.552.166 3.195-.114 4.173-.28.98-.464 1.279-1.17 2.415a.323.323 0 0 1-.443.104.317.317 0 0 1-.104-.438c.676-1.088.837-1.343 1.098-2.254.261-.911.15-2.495.09-3.975zm-7.211 22.192a3.604 3.604 0 0 1-2.616-1.134 3.902 3.902 0 0 1-1.07-2.698c0-.435.072-.858.205-1.258.134-.399.33-.769.575-1.095l5.307-8.847 2.022-3.671h-.003V5.56c-.157-.38-.46-.792-.67-1.076-.212-.286-.362-.491-.362-.729V2.438a1.254 1.254 0 0 1 1.253-1.244h11.5c.343 0 .656.14.884.365l.003.002c.226.227.367.537.367.877v1.317c0 .222-.138.412-.335.684-.211.292-.536.741-.697 1.141v10.258h-.003l2.022 3.67 5.306 8.848a3.952 3.952 0 0 1 .78 2.354c.001 1.05-.408 2.004-1.069 2.697a3.605 3.605 0 0 1-2.616 1.134H34.836z"/>
        <text fill="#1D1D24" font-family="MyriadSetPro-Bold, Myriad Set Pro" font-size="48" font-weight="bold" transform="translate(-1 -19)">
            <tspan x="65" y="53">UnitBean</tspan>
        </text>
    </g>
</svg>
